<svg version="1.1" id="Layer_1" xmlns="http://www.w3.org/2000/svg" xmlns:xlink="http://www.w3.org/1999/xlink" x="0px" y="0px"
	 width="100%" viewBox="0 0 1280 1280" enable-background="new 0 0 1280 1280" xml:space="preserve">
<path fill="#FFFFFF" opacity="1.000000" stroke="none" 
	d="
M874.000000,1281.000000 
	C582.666687,1281.000000 291.833344,1281.000000 1.000000,1281.000000 
	C1.000000,854.333313 1.000000,427.666656 1.000000,1.000000 
	C427.666656,1.000000 854.333313,1.000000 1281.000000,1.000000 
	C1281.000000,427.666656 1281.000000,854.333313 1281.000000,1281.000000 
	C1145.500000,1281.000000 1010.000000,1281.000000 874.000000,1281.000000 
M828.559631,1106.040649 
	C842.050293,1099.692993 855.757080,1093.760254 868.969177,1086.877808 
	C881.500916,1080.349609 893.731018,1073.172241 905.707886,1065.664429 
	C926.230774,1052.799438 945.811401,1038.575317 963.487915,1021.946472 
	C976.332092,1009.863647 989.252197,997.802795 1001.287903,984.936462 
	C1012.432495,973.022644 1022.757446,960.297302 1032.887695,947.489868 
	C1048.120361,928.231506 1061.157104,907.457458 1072.559937,885.739868 
	C1079.861328,871.833679 1087.181396,857.796143 1092.751831,843.154968 
	C1101.289429,820.715149 1109.435425,798.002625 1115.662109,774.845032 
	C1120.972534,755.095337 1123.829346,734.627747 1126.852905,714.340820 
	C1129.020630,699.796204 1130.395020,685.047241 1130.835083,670.350830 
	C1131.542114,646.737000 1131.333496,623.091309 1128.029907,599.593750 
	C1126.488892,588.633484 1125.819824,577.521851 1123.742065,566.672852 
	C1121.019775,552.459045 1117.491455,538.387756 1113.958130,524.343628 
	C1108.039062,500.816498 1099.751709,478.086548 1089.972290,455.905762 
	C1079.383179,431.888306 1067.373901,408.542419 1052.776489,386.759094 
	C1041.514404,369.953033 1029.365845,353.614960 1016.298889,338.179901 
	C1003.242920,322.757874 989.035583,308.215881 974.433838,294.226593 
	C962.421265,282.717865 949.332642,272.280884 936.290649,261.910095 
	C916.439514,246.124847 895.056702,232.559570 872.490662,221.019501 
	C857.199280,213.199585 841.752075,205.503510 825.802856,199.198257 
	C807.505432,191.964645 788.766907,185.674973 769.872131,180.168900 
	C747.516418,173.654327 724.674622,169.012665 701.394287,166.988617 
	C685.892761,165.640900 670.409668,163.776566 654.878357,163.170792 
	C641.992859,162.668213 629.026001,163.297333 616.136841,164.097000 
	C601.444824,165.008499 586.742188,166.227921 572.149353,168.123138 
	C558.203125,169.934372 544.176331,171.934723 530.573242,175.383804 
	C511.316772,180.266327 492.214539,185.962326 473.411957,192.381516 
	C445.073669,202.056183 418.149811,215.111832 392.432983,230.371643 
	C370.598816,243.327560 349.618347,257.641357 330.219757,274.181000 
	C314.325928,287.732391 298.117523,300.899567 284.556732,316.936859 
	C273.043549,330.552551 260.968842,343.720551 249.959305,357.728546 
	C234.305923,377.645111 220.554077,398.925079 209.024338,421.500031 
	C201.212616,436.795166 193.481155,452.227814 187.205475,468.185577 
	C179.946884,486.642700 173.788208,505.583923 168.132645,524.606506 
	C161.538330,546.786682 157.036804,569.483337 154.998459,592.593140 
	C153.602188,608.423645 151.767960,624.243958 151.171936,640.107971 
	C150.668991,653.494507 151.398483,666.951050 152.076920,680.351562 
	C152.723404,693.120422 153.277985,705.968018 155.192444,718.580688 
	C157.807083,735.806213 161.291702,752.926575 165.082138,769.940796 
	C171.977600,800.892517 182.807175,830.585205 196.143692,859.278687 
	C208.024521,884.840210 221.938187,909.337402 238.105194,932.495789 
	C253.078888,953.944763 269.729095,974.034363 287.657471,993.046936 
	C294.007538,999.781128 300.894623,1006.033630 307.792358,1012.220825 
	C318.042389,1021.415222 328.110748,1030.885620 338.989258,1039.289917 
	C359.023956,1054.767700 379.967041,1068.923584 402.246643,1081.129883 
	C425.260010,1093.738281 448.828369,1105.066284 473.503937,1113.921387 
	C501.249817,1123.878540 529.542908,1132.038208 558.848206,1135.955322 
	C578.879944,1138.632812 598.950256,1141.905762 619.088135,1142.665649 
	C640.700867,1143.481323 662.450134,1142.234253 684.068848,1140.810547 
	C699.454346,1139.797485 714.865051,1137.738525 730.006104,1134.810669 
	C747.982056,1131.334473 765.849792,1127.013672 783.448608,1121.959229 
	C798.515869,1117.631836 813.137390,1111.752319 828.559631,1106.040649 
z"/>
<path fill="#000000" opacity="1.000000" stroke="none" 
	d="
M828.257812,1106.300049 
	C813.137390,1111.752319 798.515869,1117.631836 783.448608,1121.959229 
	C765.849792,1127.013672 747.982056,1131.334473 730.006104,1134.810669 
	C714.865051,1137.738525 699.454346,1139.797485 684.068848,1140.810547 
	C662.450134,1142.234253 640.700867,1143.481323 619.088135,1142.665649 
	C598.950256,1141.905762 578.879944,1138.632812 558.848206,1135.955322 
	C529.542908,1132.038208 501.249817,1123.878540 473.503937,1113.921387 
	C448.828369,1105.066284 425.260010,1093.738281 402.246643,1081.129883 
	C379.967041,1068.923584 359.023956,1054.767700 338.989258,1039.289917 
	C328.110748,1030.885620 318.042389,1021.415222 307.792358,1012.220825 
	C300.894623,1006.033630 294.007538,999.781128 287.657471,993.046936 
	C269.729095,974.034363 253.078888,953.944763 238.105194,932.495789 
	C221.938187,909.337402 208.024521,884.840210 196.143692,859.278687 
	C182.807175,830.585205 171.977600,800.892517 165.082138,769.940796 
	C161.291702,752.926575 157.807083,735.806213 155.192444,718.580688 
	C153.277985,705.968018 152.723404,693.120422 152.076920,680.351562 
	C151.398483,666.951050 150.668991,653.494507 151.171936,640.107971 
	C151.767960,624.243958 153.602188,608.423645 154.998459,592.593140 
	C157.036804,569.483337 161.538330,546.786682 168.132645,524.606506 
	C173.788208,505.583923 179.946884,486.642700 187.205475,468.185577 
	C193.481155,452.227814 201.212616,436.795166 209.024338,421.500031 
	C220.554077,398.925079 234.305923,377.645111 249.959305,357.728546 
	C260.968842,343.720551 273.043549,330.552551 284.556732,316.936859 
	C298.117523,300.899567 314.325928,287.732391 330.219757,274.181000 
	C349.618347,257.641357 370.598816,243.327560 392.432983,230.371643 
	C418.149811,215.111832 445.073669,202.056183 473.411957,192.381516 
	C492.214539,185.962326 511.316772,180.266327 530.573242,175.383804 
	C544.176331,171.934723 558.203125,169.934372 572.149353,168.123138 
	C586.742188,166.227921 601.444824,165.008499 616.136841,164.097000 
	C629.026001,163.297333 641.992859,162.668213 654.878357,163.170792 
	C670.409668,163.776566 685.892761,165.640900 701.394287,166.988617 
	C724.674622,169.012665 747.516418,173.654327 769.872131,180.168900 
	C788.766907,185.674973 807.505432,191.964645 825.802856,199.198257 
	C841.752075,205.503510 857.199280,213.199585 872.490662,221.019501 
	C895.056702,232.559570 916.439514,246.124847 936.290649,261.910095 
	C949.332642,272.280884 962.421265,282.717865 974.433838,294.226593 
	C989.035583,308.215881 1003.242920,322.757874 1016.298889,338.179901 
	C1029.365845,353.614960 1041.514404,369.953033 1052.776489,386.759094 
	C1067.373901,408.542419 1079.383179,431.888306 1089.972290,455.905762 
	C1099.751709,478.086548 1108.039062,500.816498 1113.958130,524.343628 
	C1117.491455,538.387756 1121.019775,552.459045 1123.742065,566.672852 
	C1125.819824,577.521851 1126.488892,588.633484 1128.029907,599.593750 
	C1131.333496,623.091309 1131.542114,646.737000 1130.835083,670.350830 
	C1130.395020,685.047241 1129.020630,699.796204 1126.852905,714.340820 
	C1123.829346,734.627747 1120.972534,755.095337 1115.662109,774.845032 
	C1109.435425,798.002625 1101.289429,820.715149 1092.751831,843.154968 
	C1087.181396,857.796143 1079.861328,871.833679 1072.559937,885.739868 
	C1061.157104,907.457458 1048.120361,928.231506 1032.887695,947.489868 
	C1022.757446,960.297302 1012.432495,973.022644 1001.287903,984.936462 
	C989.252197,997.802795 976.332092,1009.863647 963.487915,1021.946472 
	C945.811401,1038.575317 926.230774,1052.799438 905.707886,1065.664429 
	C893.731018,1073.172241 881.500916,1080.349609 868.969177,1086.877808 
	C855.757080,1093.760254 842.050293,1099.692993 828.257812,1106.300049 
M823.219971,556.014282 
	C818.509460,560.082886 815.174805,565.109070 814.890259,571.355347 
	C814.668091,576.231689 815.314941,581.198608 816.029114,586.058655 
	C822.656006,631.155579 829.376770,676.238708 836.082092,721.324097 
	C837.214050,728.935608 838.401611,736.538818 839.659424,744.773926 
	C840.332886,743.838440 840.602783,743.631226 840.639709,743.388672 
	C844.445312,718.394043 848.183350,693.388977 852.035522,668.401550 
	C856.545776,639.145325 861.041748,609.885986 865.778809,580.666077 
	C867.544067,569.777039 862.617493,558.656616 853.057373,552.985901 
	C844.855225,548.120667 830.410339,548.621826 823.979248,555.912170 
	C823.979248,555.912170 823.878662,555.852539 823.219971,556.014282 
M413.997101,568.505798 
	C413.997101,589.828674 413.874847,611.152527 414.037506,632.474182 
	C414.158081,648.282654 413.592957,664.196594 415.202332,679.871704 
	C418.224213,709.303406 433.120819,730.597290 461.899353,740.431396 
	C478.706726,746.174683 496.115540,747.047607 513.654602,744.591675 
	C527.300049,742.680908 540.294678,738.834961 551.422363,730.265869 
	C570.941406,715.234924 578.350098,694.313049 578.703003,670.758240 
	C579.269348,632.952820 578.960876,595.134033 578.990356,557.320923 
	C578.995056,551.293457 576.981445,549.229797 570.908447,549.184265 
	C559.747742,549.100525 548.586060,549.149902 537.424744,549.163574 
	C529.786865,549.172974 528.164062,550.830383 528.162659,558.626221 
	C528.156555,593.109619 528.165100,627.592957 528.151733,662.076355 
	C528.150513,665.238708 528.218994,668.417847 527.936646,671.560547 
	C526.547852,687.023987 516.143555,698.171692 500.983398,700.591431 
	C486.560822,702.893433 473.070679,695.878418 467.877106,682.467468 
	C465.890808,677.338440 465.006531,671.482300 464.968140,665.948059 
	C464.718475,629.967163 464.846619,593.983704 464.833649,558.001038 
	C464.831360,551.629761 462.505096,549.208191 456.214355,549.176575 
	C444.720184,549.118835 433.225433,549.130981 421.731079,549.172302 
	C415.879242,549.193298 414.103760,551.026245 414.007477,557.014648 
	C413.951263,560.512024 413.997131,564.011108 413.997101,568.505798 
M1021.673157,597.624634 
	C1035.322266,601.570801 1046.147339,609.184937 1053.261841,621.728760 
	C1056.672729,627.742615 1058.210449,628.145813 1064.354614,624.852234 
	C1073.865112,619.753845 1083.342163,614.592590 1092.821777,609.436707 
	C1098.492310,606.352539 1099.080811,604.321838 1096.011108,598.721375 
	C1075.010864,560.407898 1029.268677,540.098877 986.902161,550.278198 
	C945.017761,560.341614 914.314331,595.492615 910.168579,638.127014 
	C906.035034,680.635498 929.306335,720.655090 968.792664,738.571594 
	C987.144348,746.898438 1006.390564,748.692566 1026.398560,745.888489 
	C1026.398560,737.330505 1026.398560,729.176819 1026.398560,721.023193 
	C1026.398560,712.963013 1026.398560,704.902893 1026.398560,696.502197 
	C1023.458862,696.981323 1021.345337,697.297363 1019.242432,697.672974 
	C994.711670,702.054016 973.195068,690.777954 963.929871,668.676514 
	C954.251892,645.590454 961.363342,618.507446 980.672852,604.702820 
	C992.944946,595.929260 1006.494263,594.248108 1021.673157,597.624634 
M260.587097,561.053528 
	C222.850128,584.823914 206.111984,618.974854 211.994385,663.124817 
	C221.475296,734.283203 306.841553,771.226074 365.934875,730.192444 
	C370.818024,726.801636 371.240204,724.513672 367.744568,719.466919 
	C361.302979,710.166992 354.830505,700.888306 348.331604,691.628418 
	C344.474792,686.133057 343.520203,686.013916 337.945160,689.690674 
	C324.348907,698.657593 309.634430,701.096619 294.127930,696.129028 
	C262.389618,685.961609 249.983063,644.689270 269.980164,616.485474 
	C285.575287,594.490112 314.481934,589.536011 337.705383,604.878418 
	C343.028442,608.395081 344.201904,608.207764 347.802979,603.104187 
	C353.942871,594.402649 360.063324,585.687317 366.173645,576.964966 
	C371.203186,569.785400 370.913391,567.704834 363.300293,563.201965 
	C329.772430,543.371521 295.730621,542.626526 260.587097,561.053528 
M749.771545,563.719910 
	C727.832825,548.066589 703.328674,544.755066 677.460632,549.298462 
	C663.457397,551.757935 650.617310,557.260376 640.871948,568.129639 
	C620.770752,590.548950 625.207458,625.366394 650.490662,644.635742 
	C662.945618,654.128174 677.264038,659.846008 691.809326,665.212097 
	C698.774536,667.781738 705.888062,670.515320 712.072510,674.509277 
	C722.675415,681.356567 721.123169,695.332520 709.320435,700.046997 
	C704.561096,701.948059 698.945007,702.653076 693.799011,702.381775 
	C688.187378,702.085999 682.668640,700.027283 676.997131,698.710999 
	C676.997131,706.371216 676.997070,714.200012 676.997070,722.028870 
	C676.997070,729.816589 676.997131,737.604248 676.997131,745.248718 
	C700.081848,751.059570 728.212769,745.413147 747.005859,732.212158 
	C777.070801,711.093445 783.902344,657.944336 741.387024,637.315063 
	C729.041138,631.324585 715.803772,627.189392 703.065613,621.981995 
	C696.497803,619.297119 689.567078,616.942017 683.805481,612.977173 
	C675.724915,607.416504 677.375061,596.983032 686.433472,593.091370 
	C693.907532,589.880249 702.001038,589.241821 709.266846,592.662659 
	C716.679138,596.152466 723.424316,601.145630 730.211060,605.842529 
	C733.728699,608.276978 736.969177,609.878479 740.372559,606.345825 
	C747.533997,598.912354 754.538025,591.326294 761.553833,583.753906 
	C764.719910,580.336731 764.513062,576.729431 761.270691,573.601196 
	C757.808472,570.260864 754.020386,567.258301 749.771545,563.719910 
M1044.996948,739.876404 
	C1044.996948,740.969910 1044.996948,742.063354 1044.996948,743.156860 
	C1045.277222,743.240601 1045.557617,743.324341 1045.837891,743.408081 
	C1062.609741,716.092712 1079.381592,688.777405 1096.321045,661.189087 
	C1065.392578,661.189087 1035.108398,661.189087 1003.801514,661.189087 
	C1017.017090,669.589844 1029.277466,677.490051 1041.671265,685.174988 
	C1044.257324,686.778564 1045.109009,688.517822 1045.076538,691.536011 
	C1044.906250,707.358704 1044.996948,723.184265 1044.996948,739.876404 
M625.766602,718.563538 
	C629.181458,721.651672 632.239868,725.310242 636.083496,727.712280 
	C644.800842,733.160156 653.898560,738.000732 662.861511,743.052917 
	C663.777222,743.569153 664.828003,743.845764 665.989624,744.301697 
	C665.989624,731.034607 666.200684,718.216980 665.906860,705.410889 
	C665.742737,698.256287 661.942810,692.804138 655.817688,689.176941 
	C647.555969,684.284546 637.058472,685.433899 629.827759,691.822327 
	C622.998413,697.856262 621.160278,708.504089 625.766602,718.563538 
z"/>
<path fill="#FDFDFD" opacity="1.000000" stroke="none" 
	d="
M413.997101,568.007568 
	C413.997131,564.011108 413.951263,560.512024 414.007477,557.014648 
	C414.103760,551.026245 415.879242,549.193298 421.731079,549.172302 
	C433.225433,549.130981 444.720184,549.118835 456.214355,549.176575 
	C462.505096,549.208191 464.831360,551.629761 464.833649,558.001038 
	C464.846619,593.983704 464.718475,629.967163 464.968140,665.948059 
	C465.006531,671.482300 465.890808,677.338440 467.877106,682.467468 
	C473.070679,695.878418 486.560822,702.893433 500.983398,700.591431 
	C516.143555,698.171692 526.547852,687.023987 527.936646,671.560547 
	C528.218994,668.417847 528.150513,665.238708 528.151733,662.076355 
	C528.165100,627.592957 528.156555,593.109619 528.162659,558.626221 
	C528.164062,550.830383 529.786865,549.172974 537.424744,549.163574 
	C548.586060,549.149902 559.747742,549.100525 570.908447,549.184265 
	C576.981445,549.229797 578.995056,551.293457 578.990356,557.320923 
	C578.960876,595.134033 579.269348,632.952820 578.703003,670.758240 
	C578.350098,694.313049 570.941406,715.234924 551.422363,730.265869 
	C540.294678,738.834961 527.300049,742.680908 513.654602,744.591675 
	C496.115540,747.047607 478.706726,746.174683 461.899353,740.431396 
	C433.120819,730.597290 418.224213,709.303406 415.202332,679.871704 
	C413.592957,664.196594 414.158081,648.282654 414.037506,632.474182 
	C413.874847,611.152527 413.997101,589.828674 413.997101,568.007568 
z"/>
<path fill="#FEFEFE" opacity="1.000000" stroke="none" 
	d="
M1021.300781,597.433716 
	C1006.494263,594.248108 992.944946,595.929260 980.672852,604.702820 
	C961.363342,618.507446 954.251892,645.590454 963.929871,668.676514 
	C973.195068,690.777954 994.711670,702.054016 1019.242432,697.672974 
	C1021.345337,697.297363 1023.458862,696.981323 1026.398560,696.502197 
	C1026.398560,704.902893 1026.398560,712.963013 1026.398560,721.023193 
	C1026.398560,729.176819 1026.398560,737.330505 1026.398560,745.888489 
	C1006.390564,748.692566 987.144348,746.898438 968.792664,738.571594 
	C929.306335,720.655090 906.035034,680.635498 910.168579,638.127014 
	C914.314331,595.492615 945.017761,560.341614 986.902161,550.278198 
	C1029.268677,540.098877 1075.010864,560.407898 1096.011108,598.721375 
	C1099.080811,604.321838 1098.492310,606.352539 1092.821777,609.436707 
	C1083.342163,614.592590 1073.865112,619.753845 1064.354614,624.852234 
	C1058.210449,628.145813 1056.672729,627.742615 1053.261841,621.728760 
	C1046.147339,609.184937 1035.322266,601.570801 1021.300781,597.433716 
z"/>
<path fill="#FDFDFD" opacity="1.000000" stroke="none" 
	d="
M260.929016,560.917480 
	C295.730621,542.626526 329.772430,543.371521 363.300293,563.201965 
	C370.913391,567.704834 371.203186,569.785400 366.173645,576.964966 
	C360.063324,585.687317 353.942871,594.402649 347.802979,603.104187 
	C344.201904,608.207764 343.028442,608.395081 337.705383,604.878418 
	C314.481934,589.536011 285.575287,594.490112 269.980164,616.485474 
	C249.983063,644.689270 262.389618,685.961609 294.127930,696.129028 
	C309.634430,701.096619 324.348907,698.657593 337.945160,689.690674 
	C343.520203,686.013916 344.474792,686.133057 348.331604,691.628418 
	C354.830505,700.888306 361.302979,710.166992 367.744568,719.466919 
	C371.240204,724.513672 370.818024,726.801636 365.934875,730.192444 
	C306.841553,771.226074 221.475296,734.283203 211.994385,663.124817 
	C206.111984,618.974854 222.850128,584.823914 260.929016,560.917480 
z"/>
<path fill="#FDFDFD" opacity="1.000000" stroke="none" 
	d="
M750.072998,563.914062 
	C754.020386,567.258301 757.808472,570.260864 761.270691,573.601196 
	C764.513062,576.729431 764.719910,580.336731 761.553833,583.753906 
	C754.538025,591.326294 747.533997,598.912354 740.372559,606.345825 
	C736.969177,609.878479 733.728699,608.276978 730.211060,605.842529 
	C723.424316,601.145630 716.679138,596.152466 709.266846,592.662659 
	C702.001038,589.241821 693.907532,589.880249 686.433472,593.091370 
	C677.375061,596.983032 675.724915,607.416504 683.805481,612.977173 
	C689.567078,616.942017 696.497803,619.297119 703.065613,621.981995 
	C715.803772,627.189392 729.041138,631.324585 741.387024,637.315063 
	C783.902344,657.944336 777.070801,711.093445 747.005859,732.212158 
	C728.212769,745.413147 700.081848,751.059570 676.997131,745.248718 
	C676.997131,737.604248 676.997070,729.816589 676.997070,722.028870 
	C676.997070,714.200012 676.997131,706.371216 676.997131,698.710999 
	C682.668640,700.027283 688.187378,702.085999 693.799011,702.381775 
	C698.945007,702.653076 704.561096,701.948059 709.320435,700.046997 
	C721.123169,695.332520 722.675415,681.356567 712.072510,674.509277 
	C705.888062,670.515320 698.774536,667.781738 691.809326,665.212097 
	C677.264038,659.846008 662.945618,654.128174 650.490662,644.635742 
	C625.207458,625.366394 620.770752,590.548950 640.871948,568.129639 
	C650.617310,557.260376 663.457397,551.757935 677.460632,549.298462 
	C703.328674,544.755066 727.832825,548.066589 750.072998,563.914062 
z"/>
<path fill="#FAFAFA" opacity="1.000000" stroke="none" 
	d="
M823.925049,555.804810 
	C830.410339,548.621826 844.855225,548.120667 853.057373,552.985901 
	C862.617493,558.656616 867.544067,569.777039 865.778809,580.666077 
	C861.041748,609.885986 856.545776,639.145325 852.035522,668.401550 
	C848.183350,693.388977 844.445312,718.394043 840.639709,743.388672 
	C840.602783,743.631226 840.332886,743.838440 839.659424,744.773926 
	C838.401611,736.538818 837.214050,728.935608 836.082092,721.324097 
	C829.376770,676.238708 822.656006,631.155579 816.029114,586.058655 
	C815.314941,581.198608 814.668091,576.231689 814.890259,571.355347 
	C815.174805,565.109070 818.509460,560.082886 823.881348,556.156433 
	C823.667114,557.739075 822.791504,559.179626 821.596680,560.790894 
	C819.537903,565.934204 817.798462,570.906677 815.985901,576.258484 
	C816.142273,577.649231 816.371765,578.660645 816.601257,579.672119 
	C816.992310,579.607544 817.383423,579.543030 817.774475,579.478516 
	C817.860046,578.382080 817.945618,577.285645 818.404907,576.128906 
	C820.884766,579.086060 824.077820,581.851685 820.840698,585.898315 
	C820.127563,585.478271 819.664795,585.209167 819.202026,584.940002 
	C819.205750,585.696838 819.209473,586.453613 819.213135,587.210449 
	C819.808960,587.139526 820.404785,587.068604 821.347534,586.997925 
	C822.502869,587.625793 823.311218,588.253479 823.770691,588.924683 
	C820.590637,590.681091 820.821167,591.262085 825.705688,594.205566 
	C826.380005,594.485657 826.760498,594.544434 827.141113,594.603210 
	C827.111694,594.345764 827.082336,594.088379 827.082214,593.564392 
	C827.145081,592.942017 827.178650,592.586182 827.733398,592.011963 
	C828.597107,591.636353 828.939697,591.479187 829.523682,591.450623 
	C830.145630,592.364685 830.526123,593.150208 830.575073,594.076904 
	C829.473572,594.687561 828.703613,595.157043 827.893127,595.651245 
	C836.677551,600.984558 847.116333,600.355652 854.832336,594.054810 
	C856.399048,593.595215 857.609558,593.189819 858.820129,592.784424 
	C858.223999,592.108032 857.627930,591.431641 857.031799,590.755188 
	C855.679504,591.189636 854.327271,591.624023 852.740540,592.024780 
	C852.506104,591.991150 852.045166,592.100525 851.638306,592.040100 
	C847.417297,592.290955 849.760010,589.431519 849.489075,587.850037 
	C851.517578,587.076538 853.270020,586.513306 855.376770,585.986450 
	C857.048584,586.446106 858.366028,586.869507 859.795959,587.553955 
	C860.220764,587.522827 860.533020,587.230713 861.055969,586.640991 
	C861.868042,584.264404 862.469421,582.185547 863.427979,579.881592 
	C863.514587,576.389526 863.244141,573.122620 862.994873,569.481628 
	C862.093933,568.062927 861.171814,567.018311 860.125854,565.596436 
	C859.943970,564.179138 859.885925,563.139038 859.802979,561.760071 
	C856.828186,558.979004 853.878235,556.536926 850.591187,553.923584 
	C847.110657,552.944763 843.936890,551.382202 840.830994,551.507202 
	C836.233276,551.692200 831.074402,551.364929 827.386841,555.894470 
	C825.937195,555.821411 824.931091,555.813110 823.925049,555.804810 
M817.750732,582.147888 
	C817.752136,582.389282 817.753540,582.630737 817.754944,582.872131 
	C817.912842,582.866821 818.203186,582.881958 818.207764,582.852844 
	C818.244019,582.618774 818.226379,582.376343 817.750732,582.147888 
M858.059753,589.494995 
	C858.247864,589.627930 858.436035,589.760803 858.624146,589.893738 
	C858.595886,589.599243 858.567627,589.304688 858.059753,589.494995 
z"/>
<path fill="#FDFDFD" opacity="1.000000" stroke="none" 
	d="
M1044.996948,739.442627 
	C1044.996948,723.184265 1044.906250,707.358704 1045.076538,691.536011 
	C1045.109009,688.517822 1044.257324,686.778564 1041.671265,685.174988 
	C1029.277466,677.490051 1017.017090,669.589844 1003.801514,661.189087 
	C1035.108398,661.189087 1065.392578,661.189087 1096.321045,661.189087 
	C1079.381592,688.777405 1062.609741,716.092712 1045.837891,743.408081 
	C1045.557617,743.324341 1045.277222,743.240601 1044.996948,743.156860 
	C1044.996948,742.063354 1044.996948,740.969910 1044.996948,739.442627 
z"/>
<path fill="#FAFAFA" opacity="1.000000" stroke="none" 
	d="
M625.541077,718.261841 
	C621.160278,708.504089 622.998413,697.856262 629.827759,691.822327 
	C637.058472,685.433899 647.555969,684.284546 655.817688,689.176941 
	C661.942810,692.804138 665.742737,698.256287 665.906860,705.410889 
	C666.200684,718.216980 665.989624,731.034607 665.989624,744.301697 
	C664.828003,743.845764 663.777222,743.569153 662.861511,743.052917 
	C653.898560,738.000732 644.800842,733.160156 636.083496,727.712280 
	C632.239868,725.310242 629.181458,721.651672 625.541077,718.261841 
M653.069519,700.497498 
	C645.576660,694.300171 636.324097,696.377563 633.991882,704.780762 
	C632.612366,709.751343 634.731445,715.050171 639.135071,717.640686 
	C643.287476,720.083435 648.859253,719.369141 652.432007,715.935974 
	C656.613464,711.918030 656.975342,707.191589 653.069519,700.497498 
z"/>
<path fill="#0B0B0B" opacity="1.000000" stroke="none" 
	d="
M859.827820,562.098999 
	C859.885925,563.139038 859.943970,564.179138 860.093689,565.989136 
	C859.488647,568.802246 858.791992,570.845337 857.812988,573.716492 
	C857.131348,572.055786 856.805054,571.260864 856.416870,570.315247 
	C855.940430,571.911011 855.497314,573.395325 855.019043,575.240356 
	C855.323486,576.735779 855.663086,577.870544 855.939392,579.260742 
	C855.814270,579.680298 855.752380,579.844482 855.442261,580.024414 
	C855.194031,580.040283 854.709106,580.151672 854.372192,580.081909 
	C853.041931,579.023865 852.048523,578.035461 850.723633,576.925354 
	C848.297546,575.677185 845.908203,572.922546 844.572144,577.971252 
	C843.281616,580.110901 842.318909,582.077026 841.097656,584.047485 
	C840.169128,584.604309 839.499023,585.156921 838.633423,585.833984 
	C838.437927,585.958435 837.977417,586.011780 837.907898,585.616089 
	C836.988892,582.893372 836.243103,578.615234 835.272644,578.563660 
	C829.958130,578.281250 829.489380,574.794434 829.110168,570.776733 
	C829.389587,570.313477 829.625793,570.130066 830.306702,570.095520 
	C836.292542,569.702332 836.347351,564.346741 839.082153,560.989990 
	C839.665649,560.921326 839.900757,560.909912 840.218140,561.234741 
	C842.525696,561.178284 844.750977,560.785645 847.001404,560.733826 
	C851.293701,561.416077 855.560730,561.757507 859.827820,562.098999 
z"/>
<path fill="#121212" opacity="1.000000" stroke="none" 
	d="
M829.921875,570.023682 
	C829.625793,570.130066 829.389587,570.313477 828.752441,570.656616 
	C825.291748,571.591309 822.291870,572.443420 819.633301,573.244385 
	C819.969360,572.931946 819.964172,572.670593 819.958984,572.409241 
	C819.764282,572.709717 819.569580,573.010132 819.718140,573.480225 
	C822.930603,574.836426 825.799744,576.022888 829.073975,577.376831 
	C829.134216,578.071289 829.260864,579.532288 829.046875,581.140259 
	C828.117065,583.155151 827.527893,585.023071 826.918518,586.981934 
	C826.898315,587.072876 827.067261,587.151489 826.698608,587.141541 
	C826.174805,588.073486 826.019714,589.015442 825.623657,589.845825 
	C824.952332,589.440125 824.521790,589.146057 824.075562,588.881226 
	C824.059753,588.910522 824.119568,588.881165 824.119568,588.881165 
	C823.311218,588.253479 822.502869,587.625793 821.320801,586.756104 
	C820.947144,586.514038 821.091003,586.049133 821.091003,586.049133 
	C824.077820,581.851685 820.884766,579.086060 818.070923,576.073730 
	C816.928467,576.012268 816.493713,575.945740 816.059021,575.879211 
	C817.798462,570.906677 819.537903,565.934204 821.619019,561.124695 
	C823.552002,561.380920 825.144836,561.570984 826.734314,561.546204 
	C829.549011,561.502502 832.361694,561.328125 835.079834,561.539307 
	C833.296936,564.588013 831.609375,567.305847 829.921875,570.023682 
z"/>
<path fill="#121212" opacity="1.000000" stroke="none" 
	d="
M854.476196,594.109131 
	C847.116333,600.355652 836.677551,600.984558 827.893127,595.651245 
	C828.703613,595.157043 829.473572,594.687561 830.869263,594.133667 
	C832.329712,593.707581 834.174927,596.561523 834.447998,593.123169 
	C835.874512,592.941650 836.919067,592.873169 838.317871,592.786377 
	C839.135193,592.727600 839.598206,592.687134 840.427246,592.794739 
	C841.842224,593.009216 842.891235,593.075684 844.024475,593.459473 
	C845.010132,593.455383 845.911621,593.133850 846.825806,592.821899 
	C846.838562,592.831421 846.822754,592.803406 847.172607,592.934448 
	C849.030029,592.743835 850.537598,592.422180 852.045166,592.100525 
	C852.045166,592.100525 852.506104,591.991150 852.830688,592.356506 
	C853.595581,593.184265 854.035889,593.646667 854.476196,594.109131 
z"/>
<path fill="#0E0E0E" opacity="1.000000" stroke="none" 
	d="
M827.830444,555.959229 
	C831.074402,551.364929 836.233276,551.692200 840.830994,551.507202 
	C843.936890,551.382202 847.110657,552.944763 850.416443,554.211060 
	C849.339233,555.164673 848.099609,555.659668 846.467041,556.098267 
	C843.375671,556.634399 840.677307,557.226807 837.812439,557.527344 
	C834.825500,556.287903 832.028442,555.430542 830.551208,558.849182 
	C829.687378,557.931580 828.758911,556.945435 827.830444,555.959229 
z"/>
<path fill="#505050" opacity="1.000000" stroke="none" 
	d="
M827.386841,555.894470 
	C828.758911,556.945435 829.687378,557.931580 830.551208,558.849182 
	C832.028442,555.430542 834.825500,556.287903 837.857666,557.877930 
	C838.758240,559.313110 839.447021,560.105835 840.135803,560.898560 
	C839.900757,560.909912 839.665649,560.921326 838.730774,561.063599 
	C837.079102,561.199036 836.127136,561.203735 835.175232,561.208374 
	C832.361694,561.328125 829.549011,561.502502 826.734314,561.546204 
	C825.144836,561.570984 823.552002,561.380920 821.938354,560.953918 
	C822.791504,559.179626 823.667114,557.739075 824.210693,556.075562 
	C823.878662,555.852539 823.979248,555.912170 823.952148,555.858521 
	C824.931091,555.813110 825.937195,555.821411 827.386841,555.894470 
z"/>
<path fill="#606060" opacity="1.000000" stroke="none" 
	d="
M846.859985,556.154663 
	C848.099609,555.659668 849.339233,555.164673 850.753540,554.382202 
	C853.878235,556.536926 856.828186,558.979004 859.802979,561.760071 
	C855.560730,561.757507 851.293701,561.416077 847.258545,560.365845 
	C847.280334,558.489624 847.070190,557.322144 846.859985,556.154663 
M853.256836,558.849426 
	C853.331482,559.094788 853.406189,559.340149 853.480896,559.585510 
	C853.506897,559.250977 853.532959,558.916382 853.256836,558.849426 
z"/>
<path fill="#1B1B1B" opacity="1.000000" stroke="none" 
	d="
M856.002625,579.005249 
	C855.663086,577.870544 855.323486,576.735779 855.363647,575.390015 
	C857.170227,575.519592 858.597107,575.860229 860.013916,576.534180 
	C861.026184,577.947205 862.048523,579.026917 863.070862,580.106628 
	C862.469421,582.185547 861.868042,584.264404 860.746216,586.666077 
	C860.044983,587.090210 859.864197,587.191528 859.683472,587.292908 
	C858.366028,586.869507 857.048584,586.446106 855.295837,585.703247 
	C854.842712,585.188293 854.824829,584.992737 854.873779,584.467957 
	C854.863525,582.809692 854.786316,581.480713 854.709106,580.151672 
	C854.709106,580.151672 855.194031,580.040283 855.703735,580.020508 
	C856.143188,579.668884 856.072876,579.337097 856.002625,579.005249 
M858.832397,579.257690 
	C858.740112,579.022888 858.647827,578.788086 858.555603,578.553223 
	C858.538391,578.868530 858.521179,579.183899 858.832397,579.257690 
M861.222412,580.156921 
	C860.948059,580.250793 860.673767,580.344666 860.399475,580.438538 
	C860.778320,580.462891 861.157166,580.487305 861.222412,580.156921 
z"/>
<path fill="#E6E6E6" opacity="1.000000" stroke="none" 
	d="
M860.024048,576.200806 
	C858.597107,575.860229 857.170227,575.519592 855.398682,575.029297 
	C855.497314,573.395325 855.940430,571.911011 856.416870,570.315247 
	C856.805054,571.260864 857.131348,572.055786 857.812988,573.716492 
	C858.791992,570.845337 859.488647,568.802246 860.217468,566.366455 
	C861.171814,567.018311 862.093933,568.062927 862.985413,569.895020 
	C861.977844,572.521912 861.000916,574.361389 860.024048,576.200806 
z"/>
<path fill="#595959" opacity="1.000000" stroke="none" 
	d="
M834.066040,593.236206 
	C834.174927,596.561523 832.329712,593.707581 831.200806,593.992493 
	C830.526123,593.150208 830.145630,592.364685 829.514160,591.426636 
	C829.263245,591.274109 829.278625,591.227478 829.514771,591.086121 
	C828.813538,589.593506 827.876099,588.242249 826.938721,586.890991 
	C827.527893,585.023071 828.117065,583.155151 829.225098,581.462280 
	C830.500305,587.263184 831.475281,587.781189 837.977417,586.011780 
	C837.977417,586.011780 838.437927,585.958435 838.677002,586.197754 
	C838.940430,586.923401 838.964661,587.409668 838.551636,587.968506 
	C835.855408,588.041016 833.596375,588.041016 829.884277,588.041016 
	C831.720581,590.322327 832.893311,591.779236 834.066040,593.236206 
z"/>
<path fill="#676767" opacity="1.000000" stroke="none" 
	d="
M854.806885,584.797180 
	C854.824829,584.992737 854.842712,585.188293 854.941467,585.666992 
	C853.270020,586.513306 851.517578,587.076538 849.150452,587.855652 
	C848.310669,588.089417 848.085632,588.107361 847.877075,588.101013 
	C847.893555,588.076782 847.922485,588.127380 847.958130,587.761597 
	C847.999023,586.907532 848.004272,586.419250 848.317566,585.665649 
	C848.774780,583.034058 848.923889,580.667786 849.083252,578.139587 
	C847.396912,578.001770 846.148376,577.899780 844.899902,577.797791 
	C845.908203,572.922546 848.297546,575.677185 850.653687,577.332031 
	C850.573059,580.302979 850.230835,582.745544 849.836060,585.563538 
	C851.972046,585.234253 853.389465,585.015747 854.806885,584.797180 
z"/>
<path fill="#454545" opacity="1.000000" stroke="none" 
	d="
M860.013916,576.534180 
	C861.000916,574.361389 861.977844,572.521912 862.964233,570.269043 
	C863.244141,573.122620 863.514587,576.389526 863.427979,579.881592 
	C862.048523,579.026917 861.026184,577.947205 860.013916,576.534180 
z"/>
<path fill="#E6E6E6" opacity="1.000000" stroke="none" 
	d="
M827.212158,592.230347 
	C827.178650,592.586182 827.145081,592.942017 826.669800,593.580017 
	C825.956055,593.902954 825.683960,593.943665 825.411926,593.984314 
	C820.821167,591.262085 820.590637,590.681091 823.770691,588.924683 
	C824.119568,588.881165 824.059753,588.910522 824.047974,589.252014 
	C824.983948,590.333130 825.931763,591.072693 826.961182,591.918091 
	C827.042847,592.023804 827.212158,592.230347 827.212158,592.230347 
z"/>
<path fill="#595959" opacity="1.000000" stroke="none" 
	d="
M847.860718,588.125244 
	C848.085632,588.107361 848.310669,588.089417 848.874390,588.065918 
	C849.760010,589.431519 847.417297,592.290955 851.638306,592.040100 
	C850.537598,592.422180 849.030029,592.743835 847.244019,592.592773 
	C847.263916,590.788513 847.562317,589.456848 847.860718,588.125244 
z"/>
<path fill="#595959" opacity="1.000000" stroke="none" 
	d="
M854.832336,594.054810 
	C854.035889,593.646667 853.595581,593.184265 853.065063,592.390137 
	C854.327271,591.624023 855.679504,591.189636 857.031799,590.755188 
	C857.627930,591.431641 858.223999,592.108032 858.820129,592.784424 
	C857.609558,593.189819 856.399048,593.595215 854.832336,594.054810 
z"/>
<path fill="#DCDCDC" opacity="1.000000" stroke="none" 
	d="
M815.985901,576.258484 
	C816.493713,575.945740 816.928467,576.012268 817.697144,576.134033 
	C817.945618,577.285645 817.860046,578.382080 817.774475,579.478516 
	C817.383423,579.543030 816.992310,579.607544 816.601257,579.672119 
	C816.371765,578.660645 816.142273,577.649231 815.985901,576.258484 
z"/>
<path fill="#DCDCDC" opacity="1.000000" stroke="none" 
	d="
M820.840698,585.898315 
	C821.091003,586.049133 820.947144,586.514038 820.973877,586.755859 
	C820.404785,587.068604 819.808960,587.139526 819.213135,587.210449 
	C819.209473,586.453613 819.205750,585.696838 819.202026,584.940002 
	C819.664795,585.209167 820.127563,585.478271 820.840698,585.898315 
z"/>
<path fill="#DCDCDC" opacity="1.000000" stroke="none" 
	d="
M817.988037,582.142212 
	C818.226379,582.376343 818.244019,582.618774 818.207764,582.852844 
	C818.203186,582.881958 817.912842,582.866821 817.755005,582.872131 
	C817.753540,582.630737 817.752136,582.389282 817.988037,582.142212 
z"/>
<path fill="#595959" opacity="1.000000" stroke="none" 
	d="
M858.299561,589.252563 
	C858.567627,589.304688 858.595886,589.599243 858.624146,589.893738 
	C858.436035,589.760803 858.247864,589.627930 858.299561,589.252563 
z"/>
<path fill="#E6E6E6" opacity="1.000000" stroke="none" 
	d="
M829.278625,591.227539 
	C829.278625,591.227478 829.263245,591.274109 829.272766,591.298096 
	C828.939697,591.479187 828.597107,591.636353 827.733337,592.011963 
	C827.212158,592.230347 827.042847,592.023804 827.305969,591.685425 
	C828.138916,591.307251 828.708801,591.267395 829.278625,591.227539 
z"/>
<path fill="#595959" opacity="1.000000" stroke="none" 
	d="
M859.795959,587.553955 
	C859.864197,587.191528 860.044983,587.090210 860.535522,586.963745 
	C860.533020,587.230713 860.220764,587.522827 859.795959,587.553955 
z"/>
<path fill="#121212" opacity="1.000000" stroke="none" 
	d="
M825.705688,594.205566 
	C825.683960,593.943665 825.956055,593.902954 826.640503,593.846558 
	C827.082336,594.088379 827.111694,594.345764 827.141113,594.603210 
	C826.760498,594.544434 826.380005,594.485657 825.705688,594.205566 
z"/>
<path fill="#040404" opacity="1.000000" stroke="none" 
	d="
M653.319214,700.790649 
	C656.975342,707.191589 656.613464,711.918030 652.432007,715.935974 
	C648.859253,719.369141 643.287476,720.083435 639.135071,717.640686 
	C634.731445,715.050171 632.612366,709.751343 633.991882,704.780762 
	C636.324097,696.377563 645.576660,694.300171 653.319214,700.790649 
z"/>
<path fill="#F2F2F2" opacity="1.000000" stroke="none" 
	d="
M837.907898,585.616089 
	C831.475281,587.781189 830.500305,587.263184 829.565796,581.315308 
	C829.260864,579.532288 829.134216,578.071289 829.073975,577.376831 
	C825.799744,576.022888 822.930603,574.836426 819.705200,573.457214 
	C819.348938,573.264465 819.291992,573.295532 819.291992,573.295532 
	C822.291870,572.443420 825.291748,571.591309 828.649414,570.859375 
	C829.489380,574.794434 829.958130,578.281250 835.272644,578.563660 
	C836.243103,578.615234 836.988892,582.893372 837.907898,585.616089 
z"/>
<path fill="#FAFAFA" opacity="1.000000" stroke="none" 
	d="
M844.572144,577.971252 
	C846.148376,577.899780 847.396912,578.001770 849.083252,578.139587 
	C848.923889,580.667786 848.774780,583.034058 847.981567,585.675537 
	C846.896362,586.012878 846.455139,586.075012 845.616821,586.091309 
	C843.931885,585.378113 842.643982,584.710632 841.356140,584.043213 
	C842.318909,582.077026 843.281616,580.110901 844.572144,577.971252 
z"/>
<path fill="#CCCCCC" opacity="1.000000" stroke="none" 
	d="
M846.467041,556.098267 
	C847.070190,557.322144 847.280334,558.489624 847.233398,560.025085 
	C844.750977,560.785645 842.525696,561.178284 840.218140,561.234741 
	C839.447021,560.105835 838.758240,559.313110 838.024170,558.169800 
	C840.677307,557.226807 843.375671,556.634399 846.467041,556.098267 
z"/>
<path fill="#DCDCDC" opacity="1.000000" stroke="none" 
	d="
M835.079834,561.539307 
	C836.127136,561.203735 837.079102,561.199036 838.382385,561.120728 
	C836.347351,564.346741 836.292542,569.702332 830.306702,570.095520 
	C831.609375,567.305847 833.296936,564.588013 835.079834,561.539307 
z"/>
<path fill="#F2F2F2" opacity="1.000000" stroke="none" 
	d="
M854.873779,584.467957 
	C853.389465,585.015747 851.972046,585.234253 849.836060,585.563538 
	C850.230835,582.745544 850.573059,580.302979 850.985168,577.453735 
	C852.048523,578.035461 853.041931,579.023865 854.372192,580.081909 
	C854.786316,581.480713 854.863525,582.809692 854.873779,584.467957 
z"/>
<path fill="#676767" opacity="1.000000" stroke="none" 
	d="
M841.097656,584.047485 
	C842.643982,584.710632 843.931885,585.378113 845.609741,586.369629 
	C846.005798,587.064941 846.011902,587.436157 845.578491,587.815674 
	C843.088928,587.848022 841.038940,587.872009 838.988953,587.895996 
	C838.964661,587.409668 838.940430,586.923401 838.872559,586.073242 
	C839.499023,585.156921 840.169128,584.604309 841.097656,584.047485 
z"/>
<path fill="#454545" opacity="1.000000" stroke="none" 
	d="
M855.939392,579.260742 
	C856.072876,579.337097 856.143188,579.668884 855.952026,580.004639 
	C855.752380,579.844482 855.814270,579.680298 855.939392,579.260742 
z"/>
<path fill="#FAFAFA" opacity="1.000000" stroke="none" 
	d="
M829.514771,591.086182 
	C828.708801,591.267395 828.138916,591.307251 827.224365,591.579712 
	C825.931763,591.072693 824.983948,590.333130 824.063721,589.222717 
	C824.521790,589.146057 824.952332,589.440125 825.945435,589.739746 
	C826.694458,588.880676 826.880859,588.016052 827.067261,587.151489 
	C827.067261,587.151489 826.898315,587.072876 826.918518,586.981934 
	C827.876099,588.242249 828.813538,589.593506 829.514771,591.086182 
z"/>
<path fill="#E6E6E6" opacity="1.000000" stroke="none" 
	d="
M826.698608,587.141541 
	C826.880859,588.016052 826.694458,588.880676 826.186340,589.851318 
	C826.019714,589.015442 826.174805,588.073486 826.698608,587.141541 
z"/>
<path fill="#F2F2F2" opacity="1.000000" stroke="none" 
	d="
M819.361938,573.287476 
	C819.569580,573.010132 819.764282,572.709717 819.958984,572.409241 
	C819.964172,572.670593 819.969360,572.931946 819.633301,573.244385 
	C819.291992,573.295532 819.348938,573.264465 819.361938,573.287476 
z"/>
<path fill="#FDFDFD" opacity="1.000000" stroke="none" 
	d="
M838.551636,587.968506 
	C841.038940,587.872009 843.088928,587.848022 845.884399,587.925903 
	C847.060730,588.060913 847.491577,588.094177 847.922485,588.127380 
	C847.922485,588.127380 847.893555,588.076782 847.877136,588.101013 
	C847.562317,589.456848 847.263916,590.788513 846.894165,592.461792 
	C846.822754,592.803406 846.838562,592.831421 846.462402,592.798584 
	C845.370911,592.891235 844.655579,593.016663 843.940247,593.142090 
	C842.891235,593.075684 841.842224,593.009216 840.465515,592.477173 
	C840.053894,591.246216 839.969910,590.481018 839.885986,589.715759 
	C839.642944,589.667114 839.399841,589.618469 839.156738,589.569824 
	C838.759033,590.648132 838.361267,591.726379 837.963562,592.804688 
	C836.919067,592.873169 835.874512,592.941650 834.447998,593.123169 
	C832.893311,591.779236 831.720581,590.322327 829.884277,588.041016 
	C833.596375,588.041016 835.855408,588.041016 838.551636,587.968506 
z"/>
<path fill="#595959" opacity="1.000000" stroke="none" 
	d="
M844.024475,593.459473 
	C844.655579,593.016663 845.370911,592.891235 846.449707,592.789062 
	C845.911621,593.133850 845.010132,593.455383 844.024475,593.459473 
z"/>
<path fill="#DCDCDC" opacity="1.000000" stroke="none" 
	d="
M838.317871,592.786377 
	C838.361267,591.726379 838.759033,590.648132 839.156738,589.569824 
	C839.399841,589.618469 839.642944,589.667114 839.885986,589.715759 
	C839.969910,590.481018 840.053894,591.246216 840.099487,592.329102 
	C839.598206,592.687134 839.135193,592.727600 838.317871,592.786377 
z"/>
<path fill="#0B0B0B" opacity="1.000000" stroke="none" 
	d="
M853.407959,558.715637 
	C853.532959,558.916382 853.506897,559.250977 853.480835,559.585510 
	C853.406189,559.340149 853.331482,559.094788 853.407959,558.715637 
z"/>
<path fill="#454545" opacity="1.000000" stroke="none" 
	d="
M858.668213,579.378418 
	C858.521179,579.183899 858.538391,578.868530 858.555542,578.553223 
	C858.647827,578.788086 858.740112,579.022888 858.668213,579.378418 
z"/>
<path fill="#454545" opacity="1.000000" stroke="none" 
	d="
M861.379211,580.334290 
	C861.157166,580.487305 860.778320,580.462891 860.399475,580.438477 
	C860.673767,580.344666 860.948059,580.250793 861.379211,580.334290 
z"/>
<path fill="#595959" opacity="1.000000" stroke="none" 
	d="
M847.958130,587.761597 
	C847.491577,588.094177 847.060730,588.060913 846.323914,587.917542 
	C846.011902,587.436157 846.005798,587.064941 846.006836,586.415405 
	C846.455139,586.075012 846.896362,586.012878 847.673462,585.940857 
	C848.004272,586.419250 847.999023,586.907532 847.958130,587.761597 
z"/>
</svg>