<?xml version="1.0" standalone="no"?>
<!DOCTYPE svg PUBLIC "-//W3C//DTD SVG 20010904//EN"
 "http://www.w3.org/TR/2001/REC-SVG-20010904/DTD/svg10.dtd">
<svg version="1.0" xmlns="http://www.w3.org/2000/svg"
 width="357.000000pt" height="379.000000pt" viewBox="0 0 357.000000 379.000000"
 preserveAspectRatio="xMidYMid meet">

<g transform="translate(0.000000,379.000000) scale(0.100000,-0.100000)"
fill="#000000" stroke="none">
<path d="M1695 3459 c-112 -17 -145 -31 -450 -189 -186 -96 -276 -153 -340
-215 -22 -22 -43 -34 -52 -31 -24 9 -76 -28 -148 -106 -52 -56 -65 -77 -65
-102 0 -24 -9 -41 -36 -67 -54 -51 -120 -147 -147 -214 -14 -33 -35 -85 -47
-115 -12 -29 -33 -72 -47 -93 -38 -61 -93 -173 -109 -225 -8 -26 -18 -92 -21
-147 -6 -117 9 -194 59 -290 17 -33 44 -85 60 -115 15 -31 40 -108 54 -175 32
-149 68 -219 156 -309 42 -41 68 -76 68 -90 0 -28 145 -194 176 -202 13 -3 29
-4 36 -2 7 3 50 -30 96 -73 59 -55 109 -90 173 -123 50 -25 97 -46 104 -46 16
0 156 -67 275 -133 103 -56 187 -79 294 -80 134 -1 210 25 421 143 50 28 115
57 145 66 114 34 222 99 316 192 47 47 66 59 85 56 17 -3 35 6 65 33 77 71
134 145 134 175 0 20 11 38 40 64 83 75 132 172 170 334 23 97 41 140 104 245
58 94 80 181 79 305 -1 131 -29 222 -110 359 -31 52 -72 138 -93 191 -47 126
-78 177 -156 259 -46 49 -64 76 -64 95 0 21 -20 48 -85 113 -76 76 -89 85
-114 80 -23 -5 -35 1 -67 35 -56 58 -133 107 -279 181 -72 35 -187 94 -257
130 -160 83 -282 108 -423 86z m98 -35 c3 -4 -8 -16 -26 -28 -67 -45 -93 -39
-36 8 30 26 50 32 62 20z m-113 -34 c-20 -28 -58 -56 -65 -48 -1 2 8 20 21 41
15 23 32 37 45 37 20 0 20 0 -1 -30z m218 24 c22 -6 22 -7 -12 -30 -36 -25
-57 -28 -90 -15 -17 6 -15 10 15 29 36 23 50 25 87 16z m-288 -20 c0 -14 -41
-72 -55 -78 -25 -9 -18 32 10 59 23 24 45 33 45 19z m369 -3 c20 -13 -30 -43
-66 -39 l-28 3 35 23 c40 25 40 25 59 13z m-469 -65 c-6 -19 -23 -42 -37 -51
-25 -17 -26 -17 -20 0 4 9 7 23 7 31 0 17 48 69 57 61 3 -3 0 -21 -7 -41z
m570 13 c0 -11 -57 -21 -80 -14 -28 9 -25 22 8 33 27 9 72 -3 72 -19z m-653
-55 c-10 -34 -51 -73 -63 -61 -10 10 17 76 34 87 34 19 41 12 29 -26z m721 23
c15 -18 26 -67 15 -67 -14 0 -39 31 -47 58 -8 25 14 31 32 9z m-54 -13 c5 -12
2 -15 -10 -10 -8 3 -18 6 -20 6 -3 0 -2 5 1 10 9 15 22 12 29 -6z m-94 -27
c65 -32 118 -71 85 -63 -66 16 -216 30 -315 30 -99 0 -177 -8 -290 -30 l-25
-5 25 21 c78 62 156 80 325 77 129 -3 144 -5 195 -30z m216 5 c15 -9 29 -72
16 -72 -14 0 -30 22 -37 53 -7 27 0 33 21 19z m-876 -12 c0 -12 -28 -70 -34
-70 -3 0 -12 -3 -22 -7 -14 -5 -16 -2 -10 23 9 40 66 86 66 54z m943 -17 c3
-5 8 -23 12 -40 5 -27 4 -32 -8 -27 -8 3 -17 13 -20 22 -3 9 -8 25 -12 35 -5
12 -2 17 8 17 9 0 18 -3 20 -7z m-1050 -65 c-10 -17 -24 -33 -31 -36 -20 -6
-4 50 21 71 28 25 34 6 10 -35z m1123 6 c17 -40 15 -48 -9 -39 -23 9 -38 75
-16 75 5 0 17 -16 25 -36z m-466 6 c159 -14 290 -49 431 -115 101 -46 188 -93
209 -112 3 -2 -6 -13 -19 -23 -24 -18 -25 -17 -80 20 -74 50 -183 104 -250
124 -66 19 -61 19 -61 1 0 -8 17 -19 43 -25 52 -15 222 -103 260 -136 17 -14
27 -31 23 -39 -8 -22 -25 -18 -63 15 -37 33 -163 100 -188 100 -33 0 -12 -19
58 -53 39 -19 90 -50 112 -69 l39 -35 -61 -76 c-34 -42 -69 -90 -79 -107 -10
-16 -21 -29 -24 -27 -3 2 -39 19 -80 39 -127 61 -184 72 -370 73 -186 0 -247
-12 -384 -73 -75 -34 -79 -35 -92 -17 -12 17 -10 20 34 36 26 9 77 28 114 42
219 85 506 73 713 -29 75 -36 85 -39 85 -24 0 14 -78 57 -146 80 -125 43 -195
55 -339 54 -168 0 -249 -18 -427 -97 l-56 -25 -44 51 c-23 29 -80 91 -125 138
l-83 86 74 42 c172 98 360 162 531 180 114 12 118 12 245 1z m-725 -39 c-3
-16 -18 -37 -32 -46 l-26 -17 7 33 c6 31 43 76 53 65 3 -3 2 -18 -2 -35z
m1273 -15 c6 -48 -34 -26 -45 24 l-6 35 24 -16 c13 -9 25 -28 27 -43z m67 -37
c4 -17 5 -32 3 -35 -10 -10 -37 24 -43 54 -7 32 -6 33 13 23 11 -6 23 -25 27
-42z m-1420 14 c-3 -16 -16 -37 -27 -48 l-20 -20 6 34 c7 36 22 61 38 61 6 0
7 -12 3 -27z m1467 -20 c19 -17 26 -79 8 -68 -9 5 -40 69 -40 81 0 9 15 3 32
-13z m-1542 -37 c-6 -19 -18 -40 -26 -46 -23 -20 -18 32 7 64 27 34 34 27 19
-18z m1615 -23 c37 -41 32 -71 -8 -40 -15 12 -35 67 -23 67 3 0 17 -12 31 -27z
m-1675 -15 c0 -13 -4 -29 -9 -37 -8 -12 -12 -13 -26 -1 -14 12 -14 15 6 37 28
28 29 28 29 1z m-99 -38 c10 -6 19 -15 19 -19 0 -5 -36 -46 -80 -91 -67 -70
-82 -81 -95 -70 -8 7 -15 19 -15 26 0 12 136 164 147 164 2 0 13 -5 24 -10z
m1856 -25 c3 -9 -3 -25 -13 -36 -16 -17 -19 -18 -33 -5 -13 14 -13 18 4 36 22
24 34 25 42 5z m-1642 -85 l28 -30 -105 -105 c-58 -58 -110 -105 -115 -105 -5
0 -24 16 -43 35 l-34 35 49 51 c59 60 165 148 181 149 5 0 23 -13 39 -30z
m1425 -42 c-35 -35 -86 -92 -114 -127 -52 -66 -79 -69 -30 -3 47 63 177 192
193 192 8 0 -13 -28 -49 -62z m440 -124 c0 -36 -10 -43 -30 -19 -7 9 -9 26 -5
45 6 25 9 29 21 19 8 -6 14 -27 14 -45z m-2246 30 c5 -12 2 -15 -10 -10 -8 3
-21 6 -27 6 -7 0 -6 4 3 10 21 14 27 12 34 -6z m-9 -34 c8 -12 -60 -43 -83
-38 -14 3 -13 7 6 26 23 23 66 30 77 12z m2309 -20 c12 -31 10 -90 -4 -90 -20
0 -36 72 -24 104 9 23 13 20 28 -14z m-2108 -122 c63 -61 114 -117 114 -123 0
-7 10 -15 21 -18 13 -4 19 -11 16 -19 -74 -166 -104 -281 -114 -438 -9 -148
24 -315 88 -443 27 -55 30 -77 10 -77 -14 0 -79 141 -100 218 -60 219 -47 445
39 659 34 85 34 83 19 83 -15 0 -58 -102 -87 -210 -22 -83 -25 -115 -25 -255
-1 -143 2 -170 27 -260 15 -55 44 -135 64 -178 l38 -77 -29 -28 c-16 -15 -61
-63 -100 -107 -39 -44 -73 -81 -76 -83 -8 -3 -85 113 -107 161 -20 41 -50 53
-38 15 12 -42 52 -114 88 -161 31 -41 34 -50 24 -67 -7 -11 -16 -20 -21 -20
-4 0 -28 33 -54 72 -224 346 -252 834 -71 1238 34 75 134 230 149 230 6 0 62
-50 125 -112z m1087 98 c85 -17 226 -72 234 -92 11 -30 -10 -32 -70 -4 -182
83 -402 91 -599 24 -40 -13 -83 -31 -96 -40 -20 -13 -26 -14 -33 -3 -5 8 -7
19 -6 24 5 16 146 72 222 89 91 19 253 20 348 2z m933 -66 c182 -282 248 -683
164 -1009 -64 -253 -188 -491 -225 -432 -3 6 11 36 31 67 74 115 134 267 171
429 25 112 25 386 0 503 -34 156 -103 322 -181 440 -34 50 -38 72 -15 72 5 0
30 -32 55 -70z m-2267 34 c-15 -18 -99 -57 -106 -50 -2 2 1 13 9 25 14 23 49
39 87 40 21 1 22 -1 10 -15z m2410 -23 c12 -22 -5 -95 -20 -86 -15 10 -9 105
7 105 2 0 8 -8 13 -19z m-1031 -40 c239 -69 390 -218 458 -451 26 -90 26 -298
-1 -390 -73 -258 -231 -424 -465 -487 -50 -14 -102 -18 -225 -17 -146 0 -167
3 -242 27 -132 44 -240 128 -319 248 -249 380 -102 888 303 1048 141 55 343
64 491 22z m795 -56 c147 -292 181 -647 90 -940 -31 -99 -76 -203 -115 -267
l-30 -48 -101 96 c-56 54 -126 115 -155 137 -61 46 -60 37 -12 167 65 175 53
444 -26 601 -12 24 -10 30 20 75 53 79 160 188 177 182 8 -3 30 -33 48 -67 33
-63 58 -82 47 -35 -4 15 -22 50 -41 79 -24 39 -30 56 -22 64 19 19 25 13 61
-51 81 -145 128 -356 129 -573 1 -196 -36 -364 -118 -543 -34 -74 -38 -107 -8
-67 28 37 65 129 99 245 89 305 63 648 -71 928 -25 52 -45 96 -45 99 0 2 7 3
16 1 9 -2 35 -39 57 -83z m-2223 46 c0 -12 -22 -29 -65 -51 -35 -18 -40 -15
-29 15 11 26 94 59 94 36z m2495 -70 c-4 -22 -11 -43 -16 -47 -17 -10 -22 27
-10 68 16 53 36 37 26 -21z m-2525 3 c0 -19 -26 -47 -60 -64 -46 -23 -56 -8
-17 27 35 32 77 52 77 37z m2559 -82 c0 -26 -4 -56 -8 -67 -7 -17 -10 -15 -20
17 -10 30 -10 45 0 72 17 46 29 36 28 -22z m-2600 -23 c-13 -18 -99 -65 -99
-53 0 29 59 72 99 74 11 0 11 -3 0 -21z m2648 -91 l4 -63 -20 25 c-21 26 -26
57 -15 98 11 40 27 8 31 -60z m-2687 23 c0 -13 -59 -57 -87 -66 -29 -8 -29 6
0 33 33 31 87 51 87 33z m646 -109 c-40 -94 -57 -184 -57 -297 0 -140 15 -218
63 -327 22 -49 20 -65 -5 -55 -21 8 -74 162 -88 257 -21 145 2 324 58 455 26
61 35 71 46 48 6 -14 1 -38 -17 -81z m2100 -16 c-12 -64 -36 -39 -36 38 0 55
11 65 29 28 9 -19 11 -43 7 -66z m-2749 -48 c-15 -77 -20 -144 -20 -266 -1
-180 -8 -191 -48 -77 -39 111 -14 294 55 404 14 22 28 41 30 41 2 0 -6 -46
-17 -102z m-57 87 c0 -16 -36 -56 -70 -79 -45 -29 -47 -28 -25 15 19 35 95 87
95 64z m2748 -93 c58 -126 50 -343 -15 -410 -10 -10 -11 12 -7 115 4 106 1
151 -19 262 -22 128 -22 132 -4 110 11 -13 31 -48 45 -77z m96 22 c9 -24 7
-70 -5 -101 -8 -22 -12 -24 -19 -13 -17 27 -9 130 10 130 4 0 11 -7 14 -16z
m-2895 -52 c-9 -28 -89 -115 -89 -98 0 36 28 91 54 107 42 25 47 24 35 -9z
m2921 -123 c-7 -15 -18 -34 -26 -40 -24 -19 -17 51 8 91 l23 35 3 -29 c2 -15
-2 -41 -8 -57z m-2940 19 c-9 -31 -56 -108 -65 -108 -3 0 -5 17 -5 39 0 30 7
45 32 70 40 39 49 39 38 -1z m2960 -108 c-13 -31 -57 -77 -66 -68 -11 12 16
82 43 110 27 29 28 29 31 8 2 -12 -2 -35 -8 -50z m-2975 -53 c-22 -67 -32 -77
-41 -41 -12 45 -7 65 23 96 36 37 41 19 18 -55z m2965 -35 c0 -25 -27 -60 -60
-77 -41 -21 -43 -20 -20 24 29 57 80 91 80 53z m-2941 -73 c-13 -51 -23 -60
-33 -33 -9 24 -7 42 10 82 13 33 16 35 25 19 7 -13 7 -33 -2 -68z m39 -89
c-14 -35 -15 -35 -27 -12 -9 17 -9 32 0 65 l11 42 15 -30 c13 -27 13 -36 1
-65z m2862 52 c0 -20 -33 -52 -66 -62 -45 -15 -50 -10 -23 24 27 35 89 61 89
38z m-2816 -69 c7 -19 -11 -83 -24 -83 -16 0 -22 41 -10 71 14 33 25 37 34 12z
m2750 -44 c-21 -23 -73 -53 -80 -46 -12 11 50 67 73 67 26 0 26 0 7 -21z
m-2714 -34 c0 -20 -32 -85 -42 -85 -13 0 -9 40 8 76 16 33 34 38 34 9z m2680
-39 c0 -15 -45 -56 -61 -56 -18 0 -8 29 17 49 31 25 44 26 44 7z m-2660 -36
c0 -27 -31 -90 -42 -84 -13 8 -10 42 7 74 18 34 35 39 35 10z m2011 -51 c21
-17 39 -35 39 -41 0 -13 -158 -176 -184 -190 -15 -8 -25 -3 -57 28 -21 21 -39
41 -39 46 0 10 183 187 194 188 4 0 26 -14 47 -31z m593 -36 c-16 -13 -32 -23
-36 -23 -14 0 6 42 31 61 24 20 26 20 30 3 2 -11 -8 -27 -25 -41z m-2604 -59
c-7 -24 -16 -41 -21 -38 -15 9 -10 63 8 97 17 31 18 31 21 8 2 -13 -2 -43 -8
-67z m449 -51 c-105 -110 -129 -131 -110 -94 19 35 182 201 198 201 9 0 -31
-48 -88 -107z m2171 76 c0 -17 -57 -69 -75 -69 -22 0 -5 31 32 59 32 23 43 26
43 10z m-2576 -45 c8 -21 -4 -114 -15 -114 -12 0 -29 35 -29 59 0 24 20 71 31
71 4 0 10 -7 13 -16z m2522 -81 c-15 -13 -39 -23 -53 -23 l-27 0 29 29 c28 30
67 44 74 27 2 -5 -8 -20 -23 -33z m-736 -95 c66 -73 119 -137 117 -143 -11
-34 -220 -126 -392 -172 -89 -23 -119 -26 -270 -27 -191 -1 -284 16 -439 79
-141 58 -211 104 -189 126 7 7 22 2 48 -15 36 -25 75 -34 75 -18 0 4 -20 19
-45 34 -25 15 -45 32 -45 36 0 5 18 33 41 61 l41 51 33 -20 c36 -22 67 -26 60
-7 -3 6 -19 20 -36 30 -30 16 -31 19 -15 36 16 17 18 17 66 -7 27 -13 54 -21
59 -17 21 12 11 33 -18 40 -43 9 -58 31 -31 45 18 9 33 7 87 -15 105 -42 178
-55 314 -55 133 0 252 23 349 68 25 11 50 21 57 21 7 1 66 -59 133 -131z
m-1744 47 c-3 -11 -6 -29 -6 -40 0 -18 -1 -18 -16 -3 -12 12 -14 26 -9 59 7
40 8 42 22 23 8 -10 12 -28 9 -39z m44 -62 c0 -39 -2 -44 -15 -33 -15 12 -21
71 -9 83 14 14 24 -6 24 -50z m2410 49 c0 -21 -40 -43 -69 -40 -31 3 -31 4
-16 26 11 15 26 22 51 22 19 0 34 -4 34 -8z m-2359 -56 c14 -29 -7 -79 -22
-55 -12 19 -11 79 1 79 6 0 15 -11 21 -24z m2293 -21 c0 -5 -12 -14 -27 -19
-30 -11 -55 4 -42 24 8 13 70 9 69 -5z m-128 -30 c8 -20 -15 -55 -82 -123 -50
-52 -55 -55 -71 -40 -15 15 -11 23 57 97 40 45 77 81 82 81 5 0 11 -7 14 -15z
m-2076 -29 c0 -19 -67 -79 -79 -72 -19 12 -12 39 21 73 24 25 35 30 45 22 7
-6 13 -17 13 -23z m1710 -89 c0 -33 -219 -137 -373 -177 -229 -59 -410 -60
-628 -5 -137 35 -333 121 -354 155 -19 30 15 23 98 -20 177 -93 348 -133 562
-133 123 -1 167 4 245 23 162 39 346 111 415 163 21 16 35 14 35 -6z m-1344
-126 c136 -91 312 -159 478 -186 282 -46 599 22 849 182 74 47 82 50 90 28 11
-28 -237 -165 -383 -211 -178 -57 -389 -76 -540 -50 -175 31 -415 126 -533
212 -40 29 -46 38 -36 50 6 8 13 14 14 14 2 0 29 -18 61 -39z m1504 -60 c-6
-11 -20 -25 -31 -31 -19 -11 -20 -9 -14 27 4 21 17 46 28 57 22 18 22 18 25
-7 2 -14 -2 -35 -8 -46z m46 43 c-4 -9 -9 -15 -11 -12 -3 3 -3 13 1 22 4 9 9
15 11 12 3 -3 3 -13 -1 -22z m-1706 -24 c0 -36 -6 -37 -37 -8 -31 29 -29 38 7
38 27 0 30 -3 30 -30z m60 -19 c16 -31 13 -64 -6 -57 -9 3 -18 6 -20 6 -2 0
-4 16 -4 35 0 39 14 46 30 16z m1530 -25 c-10 -31 -57 -82 -66 -73 -10 10 21
79 43 97 33 26 38 20 23 -24z m-1470 -38 c0 -54 -24 -45 -28 10 -3 34 0 41 12
36 11 -4 16 -19 16 -46z m1381 -21 c-7 -20 -19 -38 -28 -41 -11 -5 -14 -2 -9
10 3 8 6 22 6 29 0 15 30 48 37 41 3 -2 0 -20 -6 -39z m-1333 -12 c3 -34 2
-37 -12 -26 -19 16 -22 75 -3 69 6 -3 13 -22 15 -43z m1268 -24 c-14 -26 -43
-51 -59 -51 -14 0 24 75 44 86 30 16 35 4 15 -35z m-1218 27 c14 -14 16 -58 2
-58 -12 0 -30 33 -30 54 0 19 11 21 28 4z m68 -45 c8 -29 3 -36 -20 -27 -10 4
-16 17 -16 35 0 35 27 30 36 -8z m1084 17 c0 -14 -79 -94 -86 -87 -12 12 19
68 45 82 31 17 41 18 41 5z m-1020 -45 c0 -31 -26 -33 -34 -2 -11 41 -8 49 14
37 12 -6 20 -21 20 -35z m906 -24 c-14 -27 -43 -51 -61 -51 -13 0 36 79 52 82
26 6 26 3 9 -31z m-848 4 c18 -39 15 -46 -13 -33 -16 7 -24 17 -20 26 3 7 5
18 5 23 0 18 17 8 28 -16z m62 -5 c9 0 25 -59 17 -66 -11 -11 -37 10 -46 38
-14 40 -14 41 5 34 9 -3 19 -6 24 -6z m691 -44 c-42 -60 -51 -64 -39 -16 7 28
19 45 37 54 14 8 28 13 29 11 2 -2 -10 -24 -27 -49z m-323 9 l182 1 -37 -23
c-59 -36 -103 -46 -189 -41 -60 3 -93 11 -136 32 -61 29 -79 52 -30 39 15 -5
109 -8 210 -8z m-273 -30 c17 -14 18 -17 5 -25 -36 -23 -60 -6 -60 41 0 21 12
18 55 -16z m520 -31 c-10 -18 -24 -35 -31 -38 -21 -8 -7 43 20 72 27 31 34 9
11 -34z m-65 -33 c-12 -23 -58 -57 -66 -49 -2 3 6 21 18 41 33 51 75 57 48 8z
m-361 20 c12 -8 7 -13 -20 -26 -28 -13 -39 -14 -64 -4 l-30 11 30 14 c35 16
65 17 84 5z m96 -30 c18 -7 15 -10 -20 -28 -32 -16 -46 -18 -68 -10 l-29 9 29
19 c30 20 55 23 88 10z m185 0 c0 -14 -60 -61 -78 -61 -11 0 -6 10 18 35 32
33 60 45 60 26z m-105 -31 c-20 -21 -38 -30 -59 -30 l-31 1 35 29 c19 17 45
30 59 30 l25 0 -29 -30z"/>
<path d="M650 1510 c0 -16 74 -164 110 -220 42 -66 60 -53 20 13 -17 29 -49
89 -71 135 -36 73 -59 102 -59 72z"/>
<path d="M1323 2103 c-12 -2 -36 -20 -53 -39 -23 -27 -30 -44 -30 -78 0 -52
16 -68 103 -111 37 -18 63 -37 65 -48 10 -50 -71 -65 -115 -21 -14 14 -26 24
-27 22 0 -2 -12 -18 -24 -36 -13 -19 -22 -35 -20 -37 23 -21 96 -45 135 -45
80 0 132 48 133 121 0 30 -7 43 -35 68 -20 17 -43 31 -53 31 -9 0 -32 9 -49
20 -38 23 -45 63 -14 80 28 15 36 13 69 -15 l30 -25 22 37 c21 35 21 38 4 50
-21 15 -82 34 -104 32 -8 -1 -25 -4 -37 -6z"/>
<path d="M1715 2095 c-84 -30 -136 -136 -115 -231 21 -96 83 -154 164 -154 94
0 158 55 179 155 15 75 -8 149 -63 199 -22 20 -46 36 -54 36 -7 0 -26 2 -42 5
-16 3 -47 -2 -69 -10z m89 -70 c64 -30 86 -132 43 -196 -81 -120 -225 11 -161
146 8 18 30 40 47 49 39 19 33 19 71 1z"/>
<path d="M2163 2099 c-104 -31 -111 -171 -11 -208 72 -27 98 -44 98 -66 0 -51
-70 -63 -114 -18 -14 14 -28 24 -29 22 -2 -2 -13 -20 -25 -40 l-22 -37 52 -22
c67 -29 146 -25 183 10 38 36 49 81 31 125 -13 30 -26 41 -86 67 -54 24 -72
37 -77 56 -4 18 -1 29 12 39 27 19 44 16 82 -13 l33 -25 9 24 c6 14 15 28 20
32 48 29 -85 75 -156 54z"/>
<path d="M1533 1799 c-34 -13 -32 -65 3 -81 23 -11 29 -10 46 11 10 14 18 31
16 39 -5 24 -40 41 -65 31z"/>
<path d="M1966 1797 c-22 -16 -18 -65 7 -81 40 -25 80 52 41 81 -10 7 -21 13
-24 13 -3 0 -14 -6 -24 -13z"/>
</g>
</svg>
